<?xml version="1.0" encoding="UTF-8"?>
<!DOCTYPE svg PUBLIC "-//W3C//DTD SVG 1.1//EN" "http://www.w3.org/Graphics/SVG/1.1/DTD/svg11.dtd">
<!-- Creator: CorelDRAW -->
<svg xmlns="http://www.w3.org/2000/svg" xml:space="preserve" width="53.4051mm" height="38.5183mm" version="1.1" style="shape-rendering:geometricPrecision; text-rendering:geometricPrecision; image-rendering:optimizeQuality; fill-rule:evenodd; clip-rule:evenodd"
viewBox="0 0 88.09 63.54"
 xmlns:xlink="http://www.w3.org/1999/xlink"
 xmlns:xodm="http://www.corel.com/coreldraw/odm/2003">
 <defs>
  <style type="text/css">
   <![CDATA[
    .fil0 {fill:#FEFEFE}
    .fil1 {fill:#08883F}
    .fil2 {fill:#9FCD36}
    .fil3 {fill:#FECA05}
   ]]>
  </style>
 </defs>
 <g id="Camada_x0020_1">
  <metadata id="CorelCorpID_0Corel-Layer"/>
  <path class="fil0" d="M37.59 48.48c-1.25,0.87 -3.92,1.38 -5.49,0.67 -0.85,-0.38 -1.15,-0.94 -1.31,-2.13 -0.2,-1.57 -0.21,-5.02 0.05,-6.57 0.19,-1.11 0.47,-1.67 1.29,-2.05 1.8,-0.85 4.08,0.04 5.51,0.63l-0.04 9.45zm0.3 -12.81c-0.3,-0.24 -0.51,-0.66 -0.81,-0.94 -2.33,-2.15 -7.07,-2.35 -9.84,-1.21 -1.65,0.67 -2.71,1.89 -3.3,3.78 -0.94,2.97 -0.99,9.91 -0.12,12.86 0.59,1.99 1.55,3.1 3.2,3.88 2.3,1.09 6.58,1.01 8.86,-0.27 1.31,-0.74 1.37,-1.32 1.81,-1.65 -0.26,3.41 0.17,5.58 -3.5,6.15 -3.97,0.62 -6.54,-0.26 -9.07,-0.24l-0.01 4.84c2.55,0.75 9.09,0.84 11.88,0.47 4.02,-0.53 6.51,-1.8 7.47,-5.33 0.89,-3.27 0.6,-8.58 0.59,-12.18 -0,-1.66 0.11,-12.03 -0.05,-12.73 -1.71,-0.08 -4.34,-0 -6.24,-0.02 -1.44,-0.01 -0.65,0.22 -0.87,2.59z"/>
  <path class="fil0" d="M74.6 37.65c4.66,-0.52 5.42,0.84 5.42,5.22 0,1.76 0.04,3.54 -0.22,5.26 -0.27,1.77 -0.91,2.46 -2.74,2.65 -4.92,0.5 -5.32,-0.81 -5.51,-5.26 -0.07,-1.6 -0.04,-3.74 0.2,-5.28 0.31,-1.92 0.91,-2.37 2.86,-2.59zm-1.46 -4.73c-3.56,0.23 -6.68,1.03 -7.99,3.58 -1.32,2.55 -1.3,7.22 -1.11,10.3 0.23,3.82 1.05,6.38 3.91,7.6 2.86,1.22 7.23,1.26 10.55,1.05 3.63,-0.23 6.6,-1.14 7.89,-3.62 1.29,-2.48 1.27,-7.28 1.1,-10.38 -0.21,-3.86 -1.13,-6.31 -3.97,-7.54 -2.77,-1.2 -7.14,-1.2 -10.37,-1z"/>
  <path class="fil0" d="M13.95 49.54c-1.03,0.69 -2.37,1.07 -3.9,1.04 -1.69,-0.03 -2.51,-0.54 -2.63,-2.21 -0.12,-1.71 0.33,-2.67 1.86,-2.93 0.98,-0.17 3.63,-0.18 4.68,-0.08l-0 4.18zm-12.01 -16.06l-0.01 4.6c0.82,0.05 2.75,-0.25 3.7,-0.31 1.33,-0.09 2.76,-0.15 4.12,-0.09 3.56,0.16 4.05,0.75 4.21,4.2 -3.29,0.49 -11.24,-1.27 -13.34,3.35 -0.64,1.41 -0.71,3.26 -0.49,4.91 0.44,3.38 2.38,5.08 5.9,5.34 1.65,0.12 3.52,-0.14 4.96,-0.66 0.75,-0.27 1.24,-0.57 1.8,-0.95 0.53,-0.36 0.83,-0.79 1.2,-1.27 0.13,-0.17 0.05,-0.09 0.2,-0.22l0.17 2.53c0.37,0.12 6.33,0.13 6.76,0.01 0.09,-3.42 0,-6.94 0.01,-10.37 0.03,-7.93 -0.24,-11.22 -9.31,-11.68 -2.02,-0.1 -8.11,0.09 -9.86,0.62z"/>
  <path class="fil0" d="M46.6 16.84c-0.1,-0.98 0.04,-2.61 0.46,-3.43 0.51,-1 1.54,-1.12 2.91,-1.11 1.35,0 2.43,0.09 2.98,1.05 0.41,0.73 0.63,2.61 0.46,3.53l-6.8 -0.04zm12.63 12.46l0.02 -4.86c-2.66,0.39 -5.25,0.59 -8.01,0.57 -4.17,-0.04 -4.32,-0.91 -4.69,-3.81l-1.76 -0.7c0.11,-0.02 0.13,-0.03 0.25,-0.03 0.15,-0.01 0.34,-0 0.49,-0.01l6.89 -0.03c2.6,-0 5.36,0.09 7.94,-0 0.23,-2.19 0.03,-6.84 -0.78,-8.71 -1.08,-2.46 -3.17,-3.36 -5.81,-3.72 -2.71,-0.36 -6.2,-0.36 -8.81,0.27 -2.76,0.67 -4.23,1.99 -4.92,4.72 -0.63,2.46 -0.59,6.36 -0.44,8.98 0.4,7.17 4.33,8.2 10.86,8.24 1.66,0.01 7.53,-0.33 8.77,-0.9z"/>
  <path class="fil0" d="M24.08 16.85c-0.08,-1.01 0.06,-2.6 0.46,-3.45 0.47,-0.99 1.6,-1.11 2.92,-1.11 1.37,-0 2.4,0.13 2.97,1.06 0.47,0.77 0.58,2.54 0.45,3.52l-6.79 -0.03zm12.56 12.49l0.05 -4.86c-1.07,0.01 -2.63,0.31 -3.83,0.4 -1.76,0.13 -6.33,0.48 -7.72,-0.54 -1.61,-1.18 -0.43,-2.91 -1.37,-3.25l-0.93 -0.25c-0.31,-0.09 -0.94,-0.19 -1.14,-0.34l16.15 -0.07c0.2,-2.31 0.05,-6.74 -0.77,-8.7 -0.96,-2.28 -2.88,-3.25 -5.85,-3.7 -2.65,-0.4 -6.18,-0.34 -8.78,0.23 -2.73,0.6 -4.17,2.07 -4.88,4.66 -0.64,2.33 -0.6,6.41 -0.45,8.91 0.19,3.19 0.86,5.41 2.82,6.75 3.64,2.49 12.17,1.69 16.71,0.77z"/>
  <path class="fil0" d="M4.85 8.18l-3.73 -0 -0.02 4.49 3.7 0.01 -0 17.24 6.62 -0.01 -0 -17.23 4.35 0 0.03 -4.49 -4.4 -0.01c-0.01,-0.73 0,-1.48 0.13,-2.18 0.15,-0.83 0.29,-1.16 0.93,-1.44 1.11,-0.47 2.99,-0.3 4.29,-0.34l-0.01 -4.11c-2.52,-0.23 -6.97,-0.13 -9.03,0.87 -2.46,1.2 -2.84,3.83 -2.84,7.2z"/>
  <path class="fil0" d="M54.47 33.14l-7.07 -0.06 0.04 21.87 7.17 0.01c0.15,-1.62 0.01,-9.85 0.01,-12.2 0,-1.59 1.49,-2.77 2.83,-3.23 0.77,-0.26 1.67,-0.46 2.54,-0.54 0.97,-0.09 2.01,0.03 2.93,-0.07 0,-1.12 0.16,-5.31 -0.06,-6.01 -1.4,-0.41 -4.31,0.25 -5.41,0.92 -1.29,0.78 -2.05,1.76 -2.57,3.14l-0.17 0.43c-0.14,0.24 0.02,0.03 -0.15,0.19l-0.1 -4.45z"/>
  <path class="fil1" d="M63.56 7.64c-1.1,0.43 -0.85,1.47 -0.86,2.68l-0.01 10.62c0,1.12 -0.18,6.27 0.21,6.84 0.83,1.21 3.33,-1.56 4.09,-2.31l1.88 -1.67c0.55,-0.45 1.15,-1.16 1.36,-2.19 0.34,-1.72 0.19,-4.95 0.17,-6.86 -0.08,-7.45 0.91,-7.24 -3.4,-7.23 -0.78,0 -2.83,-0.12 -3.43,0.12z"/>
  <path class="fil1" d="M65.23 29.72c0.75,0.62 1.79,0.43 3.13,0.42l11.01 0c2.39,-0 4.9,0.08 7.28,-0 1.34,-0.05 1.41,-0.97 1.41,-2.22 -0,-5.02 0.84,-4.25 -6.82,-4.27 -2.46,-0 -4.92,0 -7.38,-0 -1.65,-0.01 -2.94,0.25 -4.14,1.31l-3.87 3.51c-0.38,0.33 -0.71,0.54 -0.64,1.25z"/>
  <path class="fil2" d="M72.71 7.64c-0.46,0.17 -0.49,0.15 -0.67,0.56 -0.34,0.79 -0.2,2.58 -0.2,3.6 0,1.7 0,3.41 0,5.11 -0,2.61 -0.24,4.58 2.09,2.42l4.67 -4.18c0.91,-1.09 0.93,-2.5 0.91,-4.24 -0.02,-2.01 0.46,-3.4 -1.8,-3.39 -1.02,0.01 -4.28,-0.14 -5,0.11z"/>
  <path class="fil2" d="M81.7 15.76c-2.54,0.3 -3.4,1.62 -4.83,2.86l-2.77 2.45c-0.71,0.8 -0.16,1.15 0.85,1.14 1.74,-0.01 3.48,-0.02 5.22,-0.02 1.7,0.01 3.41,0.01 5.11,0 2.94,-0.01 2.86,0.45 2.78,-5 -0.01,-0.9 -0.35,-1.38 -1.21,-1.46 -1.06,-0.1 -4.13,-0.09 -5.15,0.03z"/>
  <path class="fil3" d="M81.72 7.63c-1.03,0.43 -0.8,1.54 -0.81,2.69 -0.01,0.72 -0.13,2.86 0.12,3.36 0.42,0.86 1.89,0.61 2.87,0.61 4.28,0.02 4.19,0.36 4.18,-2.79 -0.02,-3.94 0.41,-3.98 -3,-3.98 -0.76,0 -2.81,-0.12 -3.36,0.11z"/>
 </g>
</svg>
